<svg xmlns="http://www.w3.org/2000/svg" viewBox="0 0 512 512">
  <rect width="512" height="512" rx="96" fill="#2f6f63"/>
  <path d="M158 164c28-48 85-67 98-67s70 19 98 67c31 54 16 146-34 204-25 29-50 43-64 43s-39-14-64-43c-50-58-65-150-34-204z" fill="#fff7f8"/>
  <path d="M255 101c-7-39 18-67 58-75 7 41-17 70-58 75z" fill="#dcefe8"/>
  <path d="M240 100c-31-28-70-22-99 7 32 26 69 28 99-7z" fill="#98c7a4"/>
  <g fill="#d73757">
    <circle cx="211" cy="195" r="10"/>
    <circle cx="282" cy="198" r="10"/>
    <circle cx="246" cy="247" r="10"/>
    <circle cx="210" cy="305" r="10"/>
    <circle cx="300" cy="305" r="10"/>
  </g>
</svg>
